<svg width="377" height="76" viewBox="0 0 377 76" fill="none" xmlns="http://www.w3.org/2000/svg">
<g clip-path="url(#clip0_181_4506)">
<path d="M162.45 23.39C161.42 24.44 159.99 25 158.31 25C158.3 25 158.28 25 158.27 25C158.26 25 158.24 25 158.23 25C156.55 25 155.12 24.44 154.09 23.39C153.05 22.33 152.48 20.79 152.49 19.06C152.49 17.32 153.05 15.79 154.09 14.73C155.12 13.68 156.55 13.12 158.23 13.12H158.31C159.99 13.12 161.42 13.68 162.45 14.73C163.49 15.79 164.06 17.33 164.05 19.06C164.05 20.8 163.49 22.33 162.45 23.39ZM169.91 19.05C169.9 14.66 168.09 11.39 164.52 9.32003C162.61 8.21003 160.45 7.72003 158.26 7.74003C156.08 7.73003 153.91 8.22003 152 9.32003C148.43 11.39 146.62 14.66 146.61 19.05C146.62 23.44 148.43 26.71 152 28.78C153.85 29.85 155.96 30.36 158.09 30.37C158.14 30.37 158.2 30.37 158.26 30.37C158.32 30.37 158.37 30.37 158.43 30.37C160.56 30.36 162.67 29.86 164.52 28.78C168.09 26.71 169.9 23.44 169.91 19.05Z" fill="white"></path>
<path d="M87.9404 7.97998V13.36H96.1304V30.18H102.13V13.36H110.47V7.97998H87.9404Z" fill="white"></path>
<path d="M86.01 7.92999H79.96V30.17H86.01V7.92999Z" fill="white"></path>
<path d="M64.9397 7.92999H58.8896V30.17H64.9397V7.92999Z" fill="white"></path>
<path d="M74.0604 7.92999L64.9404 30.18H71.1804L79.9504 7.92999H74.0604Z" fill="white"></path>
<path d="M134.75 7.92999L128.75 22.57L122.74 7.92999H112.41V30.18H118.46V11.99L125.63 30.18H131.87L139.04 11.99V30.18H145.09V7.92999H134.75Z" fill="white"></path>
<path d="M82.9802 0C81.3102 0 79.9502 1.33 79.9502 2.96C79.9502 4.59 81.3102 5.92 82.9802 5.92C84.6502 5.92 86.0102 4.59 86.0102 2.96C86.0102 1.33 84.6502 0 82.9802 0Z" fill="white"></path>
<path d="M65.8401 52.05C66.9701 52.06 67.8501 51.92 68.4701 51.64C69.0901 51.36 69.5301 50.93 69.7701 50.35C70.0201 49.78 70.1401 49.03 70.1401 48.09C70.1401 47.15 70.0101 46.42 69.7501 45.84C69.4901 45.26 69.0501 44.84 68.4201 44.56C67.7901 44.29 66.9301 44.15 65.8301 44.17L65.7201 42.72C67.3001 42.72 68.5401 42.92 69.4701 43.32C70.3901 43.72 71.0501 44.31 71.4501 45.1C71.8501 45.88 72.0501 46.88 72.0501 48.09C72.0501 49.3 71.8501 50.32 71.4501 51.11C71.0501 51.9 70.3901 52.49 69.4701 52.89C68.5501 53.29 67.3001 53.48 65.7201 53.48L65.8301 52.05H65.8401ZM64.1201 41.29H66.0601V54.61H64.1201V41.29ZM64.4401 53.49C62.8601 53.49 61.6201 53.29 60.7001 52.9C59.7801 52.5 59.1201 51.91 58.7201 51.13C58.3201 50.35 58.1201 49.34 58.1201 48.1C58.1201 46.86 58.3201 45.89 58.7201 45.11C59.1201 44.33 59.7801 43.74 60.7101 43.33C61.6401 42.93 62.8801 42.73 64.4501 42.73L64.3601 44.18C63.2501 44.17 62.3801 44.3 61.7501 44.57C61.1201 44.84 60.6801 45.27 60.4301 45.84C60.1801 46.41 60.0501 47.16 60.0501 48.1C60.0501 49.04 60.1701 49.76 60.4001 50.31C60.6301 50.86 61.0601 51.29 61.6901 51.57C62.3101 51.86 63.2001 52.02 64.3601 52.05L64.4501 53.48L64.4401 53.49Z" fill="white"></path>
<path d="M75.7602 50.27H82.8801L82.1402 50.93L80.7902 47.17C80.6702 46.86 80.5002 46.37 80.2802 45.72C80.1202 45.25 79.9602 44.81 79.8202 44.4C79.6802 43.99 79.5502 43.6 79.4402 43.25L80.8002 43.58H77.7001L79.0602 43.25C78.8502 43.95 78.4902 45.02 77.9802 46.47C77.9502 46.59 77.9102 46.7 77.8702 46.82C77.8302 46.94 77.7902 47.05 77.7402 47.17L76.3602 51L75.7502 50.27H75.7602ZM82.2402 51.23L83.3902 51.91H75.2001L76.2902 51.26L75.1002 54.6H72.9102L77.4602 42.38H81.0802L85.6301 54.6H83.4402L82.2302 51.22L82.2402 51.23Z" fill="white"></path>
<path d="M90.1298 47.47L95.0998 42.39H97.3898L91.1098 48.87L91.0798 47.56L97.5198 54.61H95.0998L90.0198 49.11H88.6898V47.47H90.1298ZM87.2598 42.39H89.2898V54.61H87.2598V42.39Z" fill="white"></path>
<path d="M106.48 50.25C105.88 51.59 105.4 52.55 105.01 53.11C104.62 53.68 104.14 54.07 103.56 54.28C102.98 54.5 102.12 54.6 100.99 54.6H99.8697V52.85H101.32C101.94 52.85 102.41 52.8 102.73 52.69C103.05 52.59 103.29 52.43 103.47 52.24C103.64 52.04 103.82 51.74 104.02 51.35C104.09 51.2 104.16 51.04 104.24 50.87C104.31 50.7 104.39 50.52 104.46 50.34C104.55 50.12 104.66 49.87 104.77 49.61C104.88 49.34 105.01 49.04 105.15 48.72L107.86 42.4H110L106.5 50.26L106.48 50.25ZM104.33 51.39V53.14H102.58L97.4697 42.39H99.6897L102.42 48.38C102.73 49.07 102.99 49.61 103.17 49.99C103.27 50.23 103.38 50.47 103.49 50.7C103.59 50.93 103.7 51.16 103.8 51.39H104.33Z" fill="white"></path>
<path d="M110.59 54.71C110.48 54.71 110.39 54.71 110.3 54.71C110.21 54.71 110.13 54.71 110.06 54.71C110.01 54.7 109.98 54.69 109.95 54.69H109.85V52.94H110.22C110.67 52.94 111.04 52.8 111.31 52.52C111.58 52.24 111.79 51.82 111.93 51.26C112.07 50.7 112.18 49.94 112.26 48.98C112.33 48.21 112.42 46.74 112.52 44.57C112.55 43.89 112.58 43.17 112.61 42.4H121.64V54.62H119.61V44.08H114.48C114.45 44.76 114.4 45.6 114.36 46.62C114.31 47.58 114.26 48.35 114.2 48.95C114.08 50.36 113.91 51.47 113.68 52.28C113.45 53.09 113.1 53.7 112.61 54.11C112.13 54.52 111.45 54.72 110.57 54.72" fill="white"></path>
<path d="M131.45 46.84C132.86 46.84 133.94 47.16 134.68 47.79C135.42 48.43 135.79 49.4 135.79 50.72C135.79 52.12 135.4 53.12 134.63 53.71C133.85 54.31 132.68 54.6 131.12 54.6H124.7V42.38H126.73V53.88L125.75 52.92H131.32C132.21 52.92 132.83 52.74 133.19 52.37C133.55 52 133.73 51.45 133.73 50.72C133.73 49.99 133.55 49.45 133.19 49.08C132.83 48.71 132.2 48.53 131.32 48.53H126.05V46.83H131.46L131.45 46.84Z" fill="white"></path>
<path d="M135.72 42.39H146.29V44.2H142.02V54.61H139.99V44.2H135.72V42.39Z" fill="white"></path>
<path d="M149.62 47.54H157.09V49.25H149.62V47.54ZM157.23 44.2H149.21L150.19 43.22V53.79L149.21 52.81H157.23V54.61H148.16V42.39H157.23V44.19V44.2Z" fill="white"></path>
<path d="M158.62 42.39H169.19V44.2H164.92V54.61H162.89V44.2H158.62V42.39Z" fill="white"></path>
<path d="M174.98 42.39H185.55V44.2H181.28V54.61H179.25V44.2H174.98V42.39Z" fill="white"></path>
<path d="M188.88 47.54H196.35V49.25H188.88V47.54ZM196.49 44.2H188.47L189.45 43.22V53.79L188.47 52.81H196.49V54.61H187.42V42.39H196.49V44.19V44.2Z" fill="white"></path>
<path d="M203.14 47.63L207.04 42.4H209.35L204.2 48.96L203.13 47.63H203.14ZM202.81 49.03L197.75 42.4H200.13L204.05 47.6L209.42 54.62H207.04L202.8 49.04L202.81 49.03ZM202.77 47.94L203.94 49.25L199.88 54.61H197.62L202.77 47.94Z" fill="white"></path>
<path d="M220.03 42.39H222.04V54.61H220.03V42.39ZM212.38 47.5H220.45V49.25H212.38V47.5ZM211.05 42.39H213.08V54.61H211.05V42.39Z" fill="white"></path>
<path d="M226.47 48.54C226.47 49.54 226.62 50.38 226.91 51.03C227.2 51.69 227.7 52.2 228.42 52.54C229.13 52.89 230.08 53.06 231.27 53.06C232.46 53.06 233.46 52.89 234.17 52.54C234.88 52.19 235.37 51.69 235.66 51.03C235.95 50.37 236.09 49.54 236.09 48.54C236.09 47.54 235.95 46.71 235.66 46.05C235.37 45.39 234.88 44.88 234.17 44.53C233.46 44.18 232.5 44 231.27 44C230.04 44 229.13 44.18 228.42 44.53C227.71 44.89 227.21 45.39 226.91 46.05C226.62 46.71 226.47 47.54 226.47 48.54ZM224.3 48.54C224.3 46.36 224.89 44.76 226.08 43.74C227.26 42.72 228.99 42.21 231.27 42.21C233.55 42.21 235.31 42.72 236.48 43.74C237.66 44.76 238.25 46.36 238.25 48.54C238.25 50.72 237.66 52.32 236.48 53.34C235.3 54.35 233.56 54.86 231.27 54.86C228.98 54.86 227.26 54.35 226.08 53.34C224.9 52.33 224.3 50.73 224.3 48.54Z" fill="white"></path>
<path d="M239.74 54.71C239.64 54.71 239.54 54.71 239.45 54.71C239.36 54.71 239.28 54.71 239.21 54.71C239.16 54.7 239.12 54.69 239.1 54.69H239V52.94H239.37C239.83 52.94 240.19 52.8 240.46 52.52C240.73 52.24 240.94 51.82 241.08 51.26C241.22 50.7 241.33 49.94 241.41 48.98C241.48 48.21 241.57 46.74 241.67 44.57C241.71 43.89 241.73 43.17 241.76 42.4H250.79V54.62H248.76V44.08H243.63C243.59 44.76 243.55 45.6 243.51 46.62C243.46 47.58 243.41 48.35 243.35 48.95C243.23 50.36 243.06 51.47 242.83 52.28C242.6 53.09 242.25 53.7 241.76 54.11C241.28 54.52 240.6 54.72 239.72 54.72" fill="white"></path>
<path d="M255.22 48.54C255.22 49.54 255.37 50.38 255.66 51.03C255.95 51.69 256.45 52.2 257.17 52.54C257.88 52.89 258.83 53.06 260.02 53.06C261.21 53.06 262.21 52.89 262.92 52.54C263.63 52.19 264.12 51.69 264.41 51.03C264.7 50.37 264.84 49.54 264.84 48.54C264.84 47.54 264.7 46.71 264.41 46.05C264.12 45.39 263.63 44.88 262.92 44.53C262.21 44.18 261.25 44 260.02 44C258.79 44 257.88 44.18 257.17 44.53C256.46 44.89 255.96 45.39 255.66 46.05C255.37 46.71 255.22 47.54 255.22 48.54ZM253.05 48.54C253.05 46.36 253.64 44.76 254.83 43.74C256.01 42.72 257.74 42.21 260.02 42.21C262.3 42.21 264.06 42.72 265.23 43.74C266.41 44.76 267 46.36 267 48.54C267 50.72 266.41 52.32 265.23 53.34C264.05 54.35 262.31 54.86 260.02 54.86C257.73 54.86 256.01 54.35 254.83 53.34C253.65 52.33 253.05 50.73 253.05 48.54Z" fill="white"></path>
<path d="M269.26 42.39H278.06V44.2H270.33L271.29 43.22V54.61H269.26V42.39Z" fill="white"></path>
<path d="M279.76 42.39H281.77V53.42H282.22C282.43 52.96 282.75 52.29 283.18 51.39L283.7 50.41L287.46 42.39H291.17V54.61H289.16V43.58H288.7L288.35 44.37C287.92 45.27 287.59 45.97 287.37 46.47L283.45 54.61H279.74V42.39H279.76Z" fill="white"></path>
<path d="M300.12 41.64C298.89 41.64 297.98 41.44 297.36 41.04C296.75 40.64 296.43 39.99 296.41 39.09H298.09C298.13 39.6 298.29 39.97 298.6 40.19C298.9 40.41 299.41 40.52 300.12 40.52C300.83 40.52 301.32 40.41 301.63 40.19C301.94 39.97 302.11 39.6 302.15 39.09H303.83C303.82 39.99 303.5 40.64 302.88 41.04C302.26 41.44 301.34 41.64 300.12 41.64ZM294.24 42.39H296.25V53.42H296.7C296.91 52.96 297.23 52.29 297.66 51.39L298.18 50.41L301.94 42.39H305.65V54.61H303.64V43.58H303.19L302.84 44.37C302.41 45.27 302.08 45.97 301.86 46.47L297.94 54.61H294.23V42.39H294.24Z" fill="white"></path>
<path d="M58.9104 63.4H60.9204V74.43H61.3704C61.5804 73.98 61.9004 73.3 62.3304 72.4L62.8604 71.42L66.6204 63.4H70.3304V75.62H68.3204V64.59H67.8604L67.5104 65.38C67.0804 66.28 66.7504 66.98 66.5304 67.48L62.6104 75.62H58.9004V63.4H58.9104Z" fill="white"></path>
<path d="M79.5398 75.87C77.2798 75.87 75.5498 75.35 74.3699 74.32C73.1899 73.29 72.5898 71.69 72.5898 69.53C72.5898 67.37 73.1799 65.79 74.3699 64.75C75.5498 63.71 77.2798 63.19 79.5398 63.19C81.4898 63.19 83.0598 63.57 84.2598 64.32C85.4598 65.07 86.1698 66.23 86.3998 67.79H84.2299C84.0099 66.81 83.5198 66.1 82.7598 65.65C81.9998 65.21 80.9298 64.99 79.5398 64.99C78.3498 64.99 77.3998 65.16 76.6998 65.51C75.9898 65.86 75.4898 66.37 75.1998 67.02C74.9098 67.68 74.7598 68.51 74.7598 69.51C74.7598 70.51 74.9098 71.35 75.1998 72C75.4898 72.66 75.9898 73.17 76.6998 73.52C77.4098 73.88 78.3498 74.05 79.5398 74.05C80.9298 74.05 81.9998 73.82 82.7698 73.37C83.5298 72.92 84.0199 72.2 84.2299 71.22H86.3998C86.1798 72.8 85.4698 73.96 84.2698 74.71C83.0698 75.46 81.4998 75.84 79.5398 75.84" fill="white"></path>
<path d="M96.5197 63.39L91.5497 68.47H90.7097V63.39H88.6797V75.61H90.7097V70.12H91.4397L96.5197 75.61H98.9397L93.1297 69.25L98.8097 63.39H96.5197Z" fill="white"></path>
<path d="M107.9 71.25C107.3 72.59 106.82 73.55 106.43 74.11C106.04 74.68 105.56 75.07 104.98 75.28C104.4 75.5 103.54 75.6 102.41 75.6H101.29V73.85H102.74C103.36 73.85 103.83 73.8 104.15 73.69C104.47 73.59 104.72 73.43 104.89 73.24C105.06 73.04 105.24 72.74 105.44 72.35C105.51 72.2 105.58 72.04 105.66 71.87C105.73 71.7 105.81 71.52 105.88 71.34C105.97 71.12 106.08 70.87 106.19 70.6C106.3 70.33 106.43 70.03 106.57 69.71L109.28 63.39H111.42L107.92 71.25H107.9ZM105.74 72.39V74.14H103.99L98.8799 63.39H101.1L103.83 69.38C104.14 70.07 104.4 70.6 104.58 70.99C104.68 71.23 104.79 71.47 104.9 71.7C105 71.93 105.11 72.16 105.21 72.39H105.74Z" fill="white"></path>
<path d="M119.2 75.87C116.94 75.87 115.21 75.35 114.03 74.32C112.85 73.29 112.25 71.69 112.25 69.53C112.25 67.37 112.84 65.79 114.03 64.75C115.21 63.71 116.94 63.19 119.2 63.19C121.15 63.19 122.72 63.57 123.92 64.32C125.12 65.07 125.83 66.23 126.06 67.79H123.89C123.67 66.81 123.18 66.1 122.42 65.65C121.66 65.21 120.59 64.99 119.2 64.99C118.01 64.99 117.06 65.16 116.36 65.51C115.65 65.86 115.16 66.37 114.86 67.02C114.57 67.68 114.42 68.51 114.42 69.51C114.42 70.51 114.57 71.35 114.86 72C115.15 72.66 115.65 73.17 116.36 73.52C117.07 73.88 118.01 74.05 119.2 74.05C120.59 74.05 121.66 73.82 122.43 73.37C123.19 72.92 123.68 72.2 123.89 71.22H126.06C125.84 72.8 125.13 73.96 123.93 74.71C122.73 75.46 121.16 75.84 119.2 75.84" fill="white"></path>
<path d="M134.5 75.87C132.24 75.87 130.51 75.35 129.33 74.32C128.15 73.29 127.55 71.69 127.55 69.53C127.55 67.37 128.14 65.79 129.33 64.75C130.51 63.71 132.24 63.19 134.5 63.19C136.45 63.19 138.02 63.57 139.22 64.32C140.42 65.07 141.13 66.23 141.36 67.79H139.19C138.97 66.81 138.48 66.1 137.72 65.65C136.96 65.21 135.89 64.99 134.5 64.99C133.31 64.99 132.36 65.16 131.66 65.51C130.95 65.86 130.45 66.37 130.16 67.02C129.87 67.68 129.72 68.51 129.72 69.51C129.72 70.51 129.87 71.35 130.16 72C130.45 72.66 130.95 73.17 131.66 73.52C132.37 73.88 133.31 74.05 134.5 74.05C135.89 74.05 136.96 73.82 137.73 73.37C138.49 72.92 138.98 72.2 139.19 71.22H141.36C141.14 72.8 140.43 73.96 139.23 74.71C138.03 75.46 136.46 75.84 134.5 75.84" fill="white"></path>
<path d="M142.46 63.39V65.2H146.73V75.61H148.76V65.2H153.03V63.39H142.46Z" fill="white"></path>
<path d="M155.96 73.93H161.63C162.4 73.93 162.93 73.75 163.23 73.4C163.53 73.04 163.68 72.56 163.68 71.94C163.68 71.32 163.52 70.81 163.21 70.48C162.89 70.15 162.36 69.98 161.6 69.98H156.33V68.42H161.65C162.29 68.42 162.75 68.28 163.03 68.01C163.31 67.74 163.45 67.31 163.45 66.74C163.45 66.17 163.31 65.74 163.04 65.46C162.76 65.18 162.3 65.04 161.65 65.04H155.96L156.94 64.06V74.89L155.96 73.93ZM154.91 63.4H161.42C162.84 63.4 163.88 63.64 164.52 64.12C165.16 64.6 165.48 65.36 165.48 66.41C165.48 67.03 165.33 67.57 165.03 68.04C164.73 68.51 164.3 68.83 163.74 69.02V69.12C164.38 69.31 164.88 69.65 165.22 70.16C165.56 70.67 165.74 71.28 165.74 72.01C165.74 72.74 165.61 73.41 165.35 73.94C165.09 74.47 164.62 74.88 163.96 75.18C163.29 75.47 162.38 75.62 161.21 75.62H154.91V63.4Z" fill="white"></path>
<path d="M168.07 63.39V75.61H177.13V73.81H170.1V70.26H176.99V68.54H170.1V65.2H177.13V63.39H168.07Z" fill="white"></path>
<path d="M188.67 63.39V68.51H181.72V63.39H179.69V75.61H181.72V70.26H188.67V75.61H190.68V63.39H188.67Z" fill="white"></path>
<path d="M202.7 63.39V68.51H195.75V63.39H193.72V75.61H195.75V70.26H202.7V75.61H204.71V63.39H202.7Z" fill="white"></path>
<path d="M209.14 69.54C209.14 70.54 209.29 71.38 209.58 72.03C209.87 72.69 210.37 73.19 211.09 73.54C211.8 73.89 212.75 74.07 213.94 74.07C215.13 74.07 216.13 73.89 216.84 73.54C217.55 73.19 218.04 72.69 218.33 72.03C218.62 71.37 218.76 70.54 218.76 69.54C218.76 68.54 218.62 67.71 218.33 67.05C218.04 66.39 217.55 65.88 216.84 65.53C216.13 65.17 215.17 65 213.94 65C212.71 65 211.8 65.18 211.09 65.53C210.38 65.89 209.88 66.39 209.58 67.05C209.29 67.71 209.14 68.54 209.14 69.54ZM206.97 69.54C206.97 67.36 207.56 65.76 208.75 64.74C209.93 63.72 211.66 63.21 213.94 63.21C216.22 63.21 217.98 63.72 219.15 64.74C220.33 65.76 220.92 67.36 220.92 69.54C220.92 71.72 220.33 73.32 219.15 74.34C217.97 75.36 216.23 75.86 213.94 75.86C211.65 75.86 209.93 75.35 208.75 74.34C207.57 73.33 206.97 71.73 206.97 69.54Z" fill="white"></path>
<path d="M223.18 63.39V75.61H225.21V65.2H231.98V63.39H223.18Z" fill="white"></path>
<path d="M234.54 69.54C234.54 70.54 234.69 71.38 234.98 72.03C235.27 72.69 235.77 73.19 236.49 73.54C237.2 73.89 238.15 74.07 239.34 74.07C240.53 74.07 241.53 73.89 242.24 73.54C242.95 73.19 243.44 72.69 243.73 72.03C244.02 71.37 244.16 70.54 244.16 69.54C244.16 68.54 244.02 67.71 243.73 67.05C243.44 66.39 242.95 65.88 242.24 65.53C241.53 65.17 240.57 65 239.34 65C238.11 65 237.2 65.18 236.49 65.53C235.78 65.89 235.28 66.39 234.98 67.05C234.69 67.71 234.54 68.54 234.54 69.54ZM232.37 69.54C232.37 67.36 232.96 65.76 234.15 64.74C235.33 63.72 237.06 63.21 239.34 63.21C241.62 63.21 243.38 63.72 244.55 64.74C245.73 65.76 246.32 67.36 246.32 69.54C246.32 71.72 245.73 73.32 244.55 74.34C243.37 75.36 241.63 75.86 239.34 75.86C237.05 75.86 235.33 75.35 234.15 74.34C232.97 73.33 232.37 71.73 232.37 69.54Z" fill="white"></path>
<path d="M253.67 63.4H255.68V74.43H256.14C256.35 73.98 256.67 73.3 257.1 72.4L257.62 71.42L261.38 63.4H265.09V75.62H263.08V64.59H262.63L262.28 65.38C261.85 66.28 261.52 66.98 261.3 67.48L257.38 75.62H253.67V63.4Z" fill="white"></path>
<path d="M277.12 63.39V68.51H270.17V63.39H268.14V75.61H270.17V70.26H277.12V75.61H279.13V63.39H277.12Z" fill="white"></path>
<path d="M281 63.39V65.2H285.27V75.61H287.3V65.2H291.57V63.39H281Z" fill="white"></path>
<path d="M293.45 63.39V75.61H302.51V73.81H295.48V70.26H302.37V68.54H295.48V65.2H302.51V63.39H293.45Z" fill="white"></path>
<path d="M304.47 75.72C304.36 75.72 304.27 75.72 304.18 75.72C304.09 75.72 304.01 75.72 303.94 75.72C303.89 75.71 303.86 75.7 303.83 75.7H303.73V73.95H304.1C304.56 73.95 304.92 73.81 305.19 73.53C305.46 73.25 305.67 72.83 305.81 72.27C305.95 71.71 306.06 70.95 306.14 69.99C306.21 69.22 306.3 67.75 306.4 65.58C306.44 64.9 306.46 64.18 306.49 63.41H315.52V75.63H313.49V65.09H308.36C308.32 65.77 308.28 66.61 308.24 67.63C308.19 68.59 308.14 69.36 308.08 69.96C307.96 71.37 307.79 72.48 307.56 73.3C307.33 74.11 306.98 74.72 306.49 75.13C306 75.54 305.33 75.74 304.45 75.74" fill="white"></path>
<path d="M317.98 75.72C317.87 75.72 317.78 75.72 317.69 75.72C317.6 75.72 317.52 75.72 317.45 75.72C317.4 75.71 317.37 75.7 317.34 75.7H317.24V73.95H317.61C318.07 73.95 318.43 73.81 318.7 73.53C318.97 73.25 319.18 72.83 319.32 72.27C319.46 71.71 319.57 70.95 319.65 69.99C319.72 69.22 319.81 67.75 319.91 65.58C319.95 64.9 319.97 64.18 320 63.41H329.03V75.63H327V65.09H321.87C321.83 65.77 321.79 66.61 321.75 67.63C321.7 68.59 321.65 69.36 321.59 69.96C321.47 71.37 321.3 72.48 321.07 73.3C320.84 74.11 320.49 74.72 320 75.13C319.52 75.54 318.84 75.74 317.96 75.74" fill="white"></path>
<path d="M332.09 63.39V75.61H341.16V73.81H334.12V70.26H341.02V68.54H334.12V65.2H341.16V63.39H332.09Z" fill="white"></path>
<path d="M351.55 63.39L346.58 68.47H345.74V63.39H343.71V75.61H345.74V70.12H346.48L351.55 75.61H353.97L348.16 69.25L353.84 63.39H351.55Z" fill="white"></path>
<path d="M354.3 63.39V65.2H358.57V75.61H360.6V65.2H364.87V63.39H354.3Z" fill="white"></path>
<path d="M367.13 71.27H374.25L373.52 71.94L372.17 68.18C372.05 67.86 371.88 67.38 371.66 66.73C371.5 66.26 371.34 65.82 371.2 65.41C371.06 65 370.93 64.61 370.82 64.26L372.18 64.59H369.08L370.45 64.26C370.24 64.96 369.88 66.03 369.37 67.48C369.33 67.6 369.3 67.71 369.26 67.83C369.22 67.95 369.18 68.06 369.13 68.18L367.75 72.01L367.14 71.27H367.13ZM373.6 72.23L374.75 72.91H366.56L367.65 72.26L366.46 75.6H364.27L368.82 63.38H372.44L376.99 75.6H374.8L373.59 72.22L373.6 72.23Z" fill="white"></path>
<path d="M9.63 8.98C4.89 8.98 1.04 12.84 1.04 17.58V44.99C1.04 49.73 4.9 53.58 9.63 53.58H37.04C41.78 53.58 45.64 49.73 45.64 44.99V17.58C45.64 12.84 41.78 8.98 37.04 8.98H9.63ZM37.03 54.61H9.63C4.32 54.61 0 50.29 0 44.98V17.57C0 12.26 4.32 7.94 9.63 7.94H37.04C42.35 7.94 46.67 12.26 46.67 17.57V44.98C46.67 50.29 42.35 54.61 37.04 54.61" fill="white"></path>
<path d="M13.1301 19.16H11.1201V43.38H13.1301V19.16Z" fill="white"></path>
<path d="M24.3401 19.16H22.3301V43.38H24.3401V19.16Z" fill="white"></path>
<path d="M35.5403 19.16H33.5303V43.38H35.5403V19.16Z" fill="white"></path>
<path d="M24.3301 43.38H22.3301L33.5301 19.16H35.5401L24.3301 43.38Z" fill="white"></path>
<path d="M13.1301 43.38H11.1201L22.3301 19.16H24.3301L13.1301 43.38Z" fill="white"></path>
</g>
<defs>
<clipPath id="clip0_181_4506">
<rect width="377" height="75.87" fill="white"></rect>
</clipPath>
</defs>
</svg>